<?xml version="1.0" encoding="UTF-8" standalone="no"?>
<!DOCTYPE svg PUBLIC "-//W3C//DTD SVG 1.1//EN"
 "http://www.w3.org/Graphics/SVG/1.1/DTD/svg11.dtd">
<!-- Generated by graphviz version 2.38.0 (20140413.2041)
 -->
<!-- Title: dependency&#45;cruiser output Pages: 1 -->
<svg width="188pt" height="166pt"
 viewBox="0.00 0.00 188.00 166.00" xmlns="http://www.w3.org/2000/svg" xmlns:xlink="http://www.w3.org/1999/xlink">
<g id="graph0" class="graph" transform="scale(1 1) rotate(0) translate(4 162)">
<title>dependency&#45;cruiser output</title>
<g id="clust1" class="cluster"><title>cluster_src</title>
<path fill="#ffffff" stroke="black" stroke-width="2" d="M25.5,-68C25.5,-68 160,-68 160,-68 166,-68 172,-74 172,-80 172,-80 172,-138 172,-138 172,-144 166,-150 160,-150 160,-150 25.5,-150 25.5,-150 19.5,-150 13.5,-144 13.5,-138 13.5,-138 13.5,-80 13.5,-80 13.5,-74 19.5,-68 25.5,-68"/>
<text text-anchor="middle" x="92.75" y="-138.8" font-family="Helvetica,sans-Serif" font-weight="bold" font-size="9.00">src</text>
</g>
<g id="clust2" class="cluster"><title>cluster_test</title>
<path fill="#ffffff" stroke="black" stroke-width="2" d="M20,-8C20,-8 77,-8 77,-8 83,-8 89,-14 89,-20 89,-20 89,-48 89,-48 89,-54 83,-60 77,-60 77,-60 20,-60 20,-60 14,-60 8,-54 8,-48 8,-48 8,-20 8,-20 8,-14 14,-8 20,-8"/>
<text text-anchor="middle" x="48.5" y="-48.8" font-family="Helvetica,sans-Serif" font-weight="bold" font-size="9.00">test</text>
</g>
<!-- src/app.js -->
<g id="node1" class="node"><title>src/app.js</title>
<g id="a_node1"><a xlink:href="src/app.js" xlink:title="app.js">
<path fill="#ffffcc" stroke="black" d="M69.5,-109C69.5,-109 27.5,-109 27.5,-109 24.5,-109 21.5,-106 21.5,-103 21.5,-103 21.5,-97 21.5,-97 21.5,-94 24.5,-91 27.5,-91 27.5,-91 69.5,-91 69.5,-91 72.5,-91 75.5,-94 75.5,-97 75.5,-97 75.5,-103 75.5,-103 75.5,-106 72.5,-109 69.5,-109"/>
<text text-anchor="middle" x="48.5" y="-97.8" font-family="Helvetica,sans-Serif" font-size="9.00">app.js</text>
</a>
</g>
</g>
<!-- src/repository.js -->
<g id="node2" class="node"><title>src/repository.js</title>
<g id="a_node2"><a xlink:href="src/repository.js" xlink:title="repository.js">
<path fill="#ffffcc" stroke="black" d="M158,-124C158,-124 103,-124 103,-124 100,-124 97,-121 97,-118 97,-118 97,-112 97,-112 97,-109 100,-106 103,-106 103,-106 158,-106 158,-106 161,-106 164,-109 164,-112 164,-112 164,-118 164,-118 164,-121 161,-124 158,-124"/>
<text text-anchor="middle" x="130.5" y="-112.8" font-family="Helvetica,sans-Serif" font-size="9.00">repository.js</text>
</a>
</g>
</g>
<!-- src/app.js&#45;&gt;src/repository.js -->
<g id="edge1" class="edge"><title>src/app.js&#45;&gt;src/repository.js</title>
<path fill="none" stroke="#999999" d="M75.695,-104.912C80.8585,-105.88 86.3719,-106.913 91.8274,-107.936"/>
<polygon fill="#999999" stroke="#999999" points="91.5726,-109.669 96.8095,-108.871 92.2177,-106.229 91.5726,-109.669"/>
</g>
<!-- src/team.js -->
<g id="node3" class="node"><title>src/team.js</title>
<g id="a_node3"><a xlink:href="src/team.js" xlink:title="team.js">
<path fill="#ffffcc" stroke="black" d="M151.5,-94C151.5,-94 109.5,-94 109.5,-94 106.5,-94 103.5,-91 103.5,-88 103.5,-88 103.5,-82 103.5,-82 103.5,-79 106.5,-76 109.5,-76 109.5,-76 151.5,-76 151.5,-76 154.5,-76 157.5,-79 157.5,-82 157.5,-82 157.5,-88 157.5,-88 157.5,-91 154.5,-94 151.5,-94"/>
<text text-anchor="middle" x="130.5" y="-82.8" font-family="Helvetica,sans-Serif" font-size="9.00">team.js</text>
</a>
</g>
</g>
<!-- src/app.js&#45;&gt;src/team.js -->
<g id="edge2" class="edge"><title>src/app.js&#45;&gt;src/team.js</title>
<path fill="none" stroke="#999999" d="M75.695,-95.0884C82.8778,-93.7417 90.7376,-92.268 98.1767,-90.8731"/>
<polygon fill="#999999" stroke="#999999" points="98.6543,-92.5641 103.246,-89.9226 98.0093,-89.1241 98.6543,-92.5641"/>
</g>
<!-- test/team.test.js -->
<g id="node4" class="node"><title>test/team.test.js</title>
<g id="a_node4"><a xlink:href="test/team.test.js" xlink:title="team.test.js">
<path fill="#ffffcc" stroke="black" d="M75,-34C75,-34 22,-34 22,-34 19,-34 16,-31 16,-28 16,-28 16,-22 16,-22 16,-19 19,-16 22,-16 22,-16 75,-16 75,-16 78,-16 81,-19 81,-22 81,-22 81,-28 81,-28 81,-31 78,-34 75,-34"/>
<text text-anchor="middle" x="48.5" y="-22.8" font-family="Helvetica,sans-Serif" font-size="9.00">team.test.js</text>
</a>
</g>
</g>
<!-- test/team.test.js&#45;&gt;src/team.js -->
<g id="edge3" class="edge"><title>test/team.test.js&#45;&gt;src/team.js</title>
<path fill="none" stroke="#999999" d="M61.6503,-34.1127C75.4744,-44.4808 98.1088,-61.4566 113.394,-72.9209"/>
<polygon fill="#999999" stroke="#999999" points="112.447,-74.3981 117.498,-75.9981 114.547,-71.5981 112.447,-74.3981"/>
</g>
</g>
</svg>
